<svg width="64" height="64" viewBox="0 0 64 64" fill="none" xmlns="http://www.w3.org/2000/svg">
<circle cx="32" cy="32" r="32" fill="#5E94E4"/>
<path d="M36.748 19.584C36.94 19.224 37.264 18.972 37.72 18.828C38.176 18.684 38.752 18.612 39.448 18.612C40.144 18.612 40.696 18.672 41.104 18.792C41.512 18.912 41.824 19.056 42.04 19.224C42.256 19.392 42.424 19.632 42.544 19.944C42.664 20.352 42.724 20.976 42.724 21.816V41.796C42.724 42.348 42.7 42.768 42.652 43.056C42.628 43.32 42.52 43.632 42.328 43.992C41.992 44.64 41.056 44.964 39.52 44.964C37.84 44.964 36.856 44.52 36.568 43.632C36.424 43.224 36.352 42.6 36.352 41.76V34.452H26.812V41.796C26.812 42.348 26.788 42.768 26.74 43.056C26.716 43.32 26.608 43.632 26.416 43.992C26.08 44.64 25.144 44.964 23.608 44.964C21.928 44.964 20.944 44.52 20.656 43.632C20.512 43.224 20.44 42.6 20.44 41.76V21.78C20.44 21.228 20.452 20.82 20.476 20.556C20.524 20.268 20.644 19.944 20.836 19.584C21.172 18.936 22.108 18.612 23.644 18.612C25.324 18.612 26.32 19.056 26.632 19.944C26.752 20.352 26.812 20.976 26.812 21.816V29.16H36.352V21.78C36.352 21.228 36.364 20.82 36.388 20.556C36.436 20.268 36.556 19.944 36.748 19.584Z" fill="white"/>
</svg>
